# xmcd
#
# Track frame offsets:
#	151
#	12909
#	25608
#	40321
#	58075
#	77612
#	92599
#	109438
#	122902
#	147692
#	160384
#	173222
#	192140
#	207694
#	225585
#
# Disc length: 3247
#
# Revision: 1
# Processed by: cddbd v1.5.1PL0 Copyright (c) Steve Scherf et al.
# Submitted via: dBpowerAMP V4.0
# Normalized: r0:TRMNUM
#
DISCID=d10cad0f
DTITLE=Various Artist - Let`s Line Dance 3/3
DYEAR=1997
DGENRE=Line Dance
TTITLE0=Capricorn - Hand Clappin;Foot Tappin`Good Lookin`Girl
TTITLE1=David Woods - Whiskey Drinkin`Woman
TTITLE2=Mark Reichow - Everything`s Big In Texas
TTITLE3=Jim Growston - The Step Momma From Hell
TTITLE4=Rhinestone Cowboy - Parisian Cowboy
TTITLE5=Marty Ross - If You Can`t Fight (Wear A Big Hat)
TTITLE6=Alan Cameron - Crystal Chandelier
TTITLE7=Big Al - Country Mile
TTITLE8=Big Al - Be A Yodel-Lay Dee Line Dancer
TTITLE9=Michael Stanton - Loan Me A Lincoln
TTITLE10=Keith Munday - Great Big Knockers
TTITLE11=Paul Griggs - Put Èm Where The Sun Don`t Shine
TTITLE12=Simon Richmond - Goodbye Love, Hello Heartache
TTITLE13=Phil Caffrey - Freeze
TTITLE14=Simon Richmond - Caroline
EXTD=
EXTT0=
EXTT1=
EXTT2=
EXTT3=
EXTT4=
EXTT5=
EXTT6=
EXTT7=
EXTT8=
EXTT9=
EXTT10=
EXTT11=
EXTT12=
EXTT13=
EXTT14=
PLAYORDER=
